<?xml version="1.0" encoding="UTF-8"?>
<svg id="Layer_1" xmlns="http://www.w3.org/2000/svg" version="1.1" xmlns:xlink="http://www.w3.org/1999/xlink" viewBox="0 0 1143 266">
  <!-- Generator: Adobe Illustrator 30.1.0, SVG Export Plug-In . SVG Version: 2.1.1 Build 136)  -->
  <defs>
    <style>
      .st0 {
        fill: #be1b87;
        font-family: GillSansMT-Condensed, 'Gill Sans MT Condensed';
        font-size: 150px;
      }

      .st1 {
        fill: #fff;
      }

      .st2 {
        fill: url(#radial-gradient);
      }

      .st3 {
        fill: #ed1e79;
      }
    </style>
    <radialGradient id="radial-gradient" cx="90.23" cy="111.38" fx="90.23" fy="111.38" r="156.02" gradientTransform="translate(241.21 -38.14) rotate(65.71)" gradientUnits="userSpaceOnUse">
      <stop offset="0" stop-color="#ed1e79"/>
      <stop offset=".54" stop-color="#ed1e79"/>
      <stop offset="1" stop-color="#6d0063"/>
    </radialGradient>
  </defs>
  <circle class="st2" cx="150.13" cy="167.67" r="89.78" transform="translate(-64.45 235.55) rotate(-65.71)"/>
  <path class="st3" d="M161.09,77.93c0,7.83-6.34,14.17-14.17,14.17s-14.17-6.34-14.17-14.17,6.34-14.17,14.17-14.17,14.17,6.35,14.17,14.17Z"/>
  <path class="st3" d="M107.63,106.04c0,11.73-9.51,21.23-21.23,21.23s-21.23-9.51-21.23-21.23,9.51-21.23,21.23-21.23,21.23,9.51,21.23,21.23Z"/>
  <path class="st1" d="M77.18,134.3c0,10.29-8.34,18.63-18.63,18.63s-18.63-8.34-18.63-18.63,8.34-18.63,18.63-18.63,18.63,8.34,18.63,18.63Z"/>
  <circle class="st1" cx="116.75" cy="84.21" r="16.32" transform="translate(-26.86 74.4) rotate(-31.89)"/>
  <path class="st3" d="M70.83,132.38c0,6.25-5.06,11.31-11.31,11.31s-11.31-5.06-11.31-11.31,5.06-11.31,11.31-11.31,11.31,5.06,11.31,11.31Z"/>
  <path class="st3" d="M71.93,77.53c0,4.49-3.64,8.12-8.12,8.12s-8.12-3.64-8.12-8.12,3.64-8.12,8.12-8.12,8.12,3.64,8.12,8.12Z"/>
  <path class="st3" d="M38.07,118.55c0,4.49-3.64,8.12-8.12,8.12s-8.12-3.64-8.12-8.12,3.64-8.12,8.12-8.12,8.12,3.64,8.12,8.12Z"/>
  <path class="st3" d="M148.74,47.4c0,4.49-3.64,8.12-8.12,8.12s-8.12-3.64-8.12-8.12,3.64-8.12,8.12-8.12,8.12,3.64,8.12,8.12Z"/>
  <path class="st3" d="M68.94,13.58c0,2.78-2.25,5.04-5.04,5.04s-5.04-2.25-5.04-5.04,2.25-5.04,5.04-5.04,5.04,2.25,5.04,5.04Z"/>
  <path class="st3" d="M110.08,47.52c0,2.59-2.1,4.7-4.7,4.7s-4.7-2.1-4.7-4.7,2.1-4.7,4.7-4.7,4.7,2.1,4.7,4.7Z"/>
  <path class="st3" d="M39.36,82.88c0,2.59-2.1,4.7-4.7,4.7s-4.7-2.1-4.7-4.7,2.1-4.7,4.7-4.7,4.7,2.1,4.7,4.7Z"/>
  <path class="st3" d="M52.71,52.21c0,2.59-2.1,4.7-4.7,4.7s-4.7-2.1-4.7-4.7,2.1-4.7,4.7-4.7,4.7,2.1,4.7,4.7Z"/>
  <path class="st3" d="M121.27,26.59c0,2.59-2.1,4.7-4.7,4.7s-4.7-2.1-4.7-4.7,2.1-4.7,4.7-4.7,4.7,2.1,4.7,4.7Z"/>
  <path class="st3" d="M128.06,82.78c0,6.25-5.06,11.31-11.31,11.31s-11.31-5.06-11.31-11.31,5.06-11.31,11.31-11.31,11.31,5.06,11.31,11.31Z"/>
  <path class="st3" d="M73.67,166.73c0,7.83-6.34,14.17-14.17,14.17s-14.17-6.34-14.17-14.17,6.34-14.17,14.17-14.17,14.17,6.34,14.17,14.17Z"/>
  <path class="st1" d="M203.91,113.83v86.17c0,13.54-11.08,24.62-24.62,24.62v-58.47l-30.77,38.31-30.77-38.31v58.47c-13.54,0-24.62-11.08-24.62-24.62v-86.17c7.54,0,14.31,3.39,18.93,8.77l36.47,44.16,36.31-43.85c4.46-5.54,11.39-9.08,19.08-9.08Z"/>
  <text class="st0" transform="translate(283.05 211.69)"><tspan x="0" y="0">BANMAI MEDIA</tspan></text>
</svg>